<?xml version="1.0" encoding="utf-8"?>
<!-- Generator: Adobe Illustrator 12.0.0, SVG Export Plug-In . SVG Version: 6.00 Build 51448)  -->
<!DOCTYPE svg PUBLIC "-//W3C//DTD SVG 1.1//EN" "http://www.w3.org/Graphics/SVG/1.1/DTD/svg11.dtd" [
	<!ENTITY ns_svg "http://www.w3.org/2000/svg">
	<!ENTITY ns_xlink "http://www.w3.org/1999/xlink">
]>
<svg  version="1.1" xmlns="&ns_svg;" xmlns:xlink="&ns_xlink;" width="800" height="600" viewBox="0 0 800 600"
	 overflow="visible" enable-background="new 0 0 800 600" xml:space="preserve">
<g id="Ebene_2">
	<rect x="104.805" y="17.918" fill="#FD9A01" width="565.417" height="565.416"/>
</g>
<g id="Ebene_1">
	<path d="M313.299,239.004c0,1.665-0.836,2.497-2.5,2.497c-1.201,0-3.018-0.1-5.452-0.299c-2.433-0.2-4.25-0.3-5.448-0.3
		c-1.201,0-3.035,0.1-5.501,0.3s-4.3,0.299-5.498,0.299c-1.667,0-2.5-1.099-2.5-3.296c0-8.449,0.267-21.13,0.799-38.036
		c0.532-16.906,0.798-29.586,0.798-38.042c0-1.265-0.266-1.897-0.798-1.897c-0.596,0-1.06,0.366-1.387,1.099
		c-3.374,7.255-11.338,26.621-23.896,58.101c-2.05,6.059-4.99,13.613-8.824,22.662c-0.475,0.907-2.91,1.362-7.304,1.362
		c-6.358,0-9.876-0.574-10.553-1.717c-2.264-5.393-5.493-12.95-9.688-22.673c-5.526-13.185-14.015-32.829-25.467-58.933
		c-0.2-0.466-0.632-0.932-1.298-1.398c-0.533,0.399-0.799,1.132-0.799,2.197c0,8.595,0.15,21.486,0.449,38.671
		c0.3,17.188,0.45,30.077,0.45,38.668c0,2.2-0.833,3.298-2.494,3.298c-1.129,0-2.858-0.1-5.182-0.299
		c-2.327-0.2-4.056-0.299-5.185-0.299c-1.199,0-2.976,0.1-5.334,0.299c-2.361,0.2-4.14,0.299-5.334,0.299
		c-1.662,0-2.492-0.632-2.492-1.897c0-7.393,0.355-18.467,1.065-33.223c0.71-14.755,1.065-25.83,1.065-33.226
		c0-7.662-0.354-19.169-1.065-34.524c-0.71-15.355-1.065-26.861-1.065-34.524c0-1.265,0.769-2,2.312-2.2
		c9.104-1.199,15.97-1.798,20.592-1.798c0.646,0,1.554,1.37,2.718,4.111c16.09,35.437,29.919,67.076,41.487,94.917
		c2.725,6.527,4.353,9.79,4.886,9.79c0.666,0,2.097-2.666,4.294-7.998c9.051-21.591,21.599-53.646,37.645-96.168
		c0.982-2.508,2.064-3.764,3.246-3.764c2.256,0,5.657,0.133,10.207,0.399c4.546,0.266,7.95,0.399,10.209,0.399
		c1.658,0,2.488,0.8,2.488,2.394c0,7.654-0.239,19.15-0.71,34.488c-0.474,15.338-0.71,26.834-0.71,34.485
		c0,7.318,0.294,18.298,0.888,32.938C313.002,220.809,313.299,231.752,313.299,239.004z"/>
	<path d="M418.96,187.926c0,4.932-2.133,8.234-6.395,9.898c-2.863,1.06-23.456,3.013-61.783,5.859
		c0.866,5.832,4.092,10.802,9.685,14.908c5.324,3.913,11.047,5.865,17.172,5.865c10.514,0,20.165-3.396,28.95-10.187
		c1.065-0.865,2.132-1.73,3.196-2.597c0.533,0,0.882,0.066,1.048,0.2c0.168,0.133,1.414,2.453,3.742,6.955
		c2.331,4.502,3.496,6.919,3.496,7.251c0,0.4-0.532,1.168-1.598,2.3c-9.792,10.405-22.345,15.607-37.664,15.607
		c-15.452,0-27.775-4.608-36.965-13.829c-9.193-9.219-13.788-21.516-13.788-36.894c0-13.709,4.395-25.658,13.186-35.844
		c9.255-10.583,20.609-15.876,34.063-15.876c12.521,0,22.976,4.6,31.368,13.795C414.863,164.271,418.96,175.132,418.96,187.926z
		 M395.169,181.845c0-5.539-2.181-10.446-6.542-14.719c-4.36-4.272-9.271-6.408-14.73-6.408c-6.125,0-11.568,2.469-16.329,7.401
		c-4.76,4.933-7.141,10.466-7.141,16.598c0,1.4,1.199,2.1,3.596,2.1c9.854,0,21.638-0.994,35.353-2.982
		C393.237,183.305,395.169,182.642,395.169,181.845z"/>
	<path d="M517.53,187.926c0,4.932-2.134,8.234-6.396,9.898c-2.862,1.06-23.454,3.013-61.783,5.859
		c0.868,5.832,4.094,10.802,9.686,14.908c5.324,3.913,11.047,5.865,17.173,5.865c10.514,0,20.165-3.396,28.95-10.187
		c1.065-0.865,2.13-1.73,3.195-2.597c0.534,0,0.881,0.066,1.049,0.2c0.166,0.133,1.412,2.453,3.742,6.955
		c2.331,4.502,3.496,6.919,3.496,7.251c0,0.4-0.532,1.168-1.6,2.3c-9.792,10.405-22.345,15.607-37.664,15.607
		c-15.451,0-27.774-4.608-36.965-13.829c-9.192-9.219-13.787-21.516-13.787-36.894c0-13.709,4.395-25.658,13.186-35.844
		c9.254-10.583,20.608-15.876,34.063-15.876c12.521,0,22.976,4.6,31.367,13.795C513.433,164.271,517.53,175.132,517.53,187.926z
		 M493.74,181.845c0-5.539-2.182-10.446-6.544-14.719c-4.359-4.272-9.269-6.408-14.73-6.408c-6.125,0-11.566,2.469-16.328,7.401
		c-4.759,4.933-7.14,10.466-7.14,16.598c0,1.4,1.198,2.1,3.596,2.1c9.853,0,21.638-0.994,35.354-2.982
		C491.808,183.305,493.74,182.642,493.74,181.845z"/>
	<path d="M586.983,223.224c0,1.457-0.133,3.443-0.399,5.957c-0.334,3.11-0.53,5.126-0.598,6.053
		c-0.065,1.192-0.166,1.919-0.299,2.183c-0.267,0.472-0.897,0.94-1.891,1.406c-5.45,2.614-14.018,3.92-25.7,3.92
		c-15.482,0-23.253-7.06-23.311-21.183c0-5.662,0.115-14.173,0.354-25.53c0.235-11.358,0.355-19.869,0.355-25.534
		c0-2.729-1.368-4.197-4.098-4.396c-2.466,0-4.9-0.033-7.296-0.1c-1.402-0.333-2.101-3.065-2.101-8.2c0-1.931,0.133-3.964,0.4-6.101
		c0.201-1.598,1.27-2.566,3.209-2.899c1.67,0,3.31-0.033,4.915-0.1c3.073-0.133,4.614-1.501,4.614-4.104
		c0-2.666-0.089-6.732-0.267-12.204c-0.179-5.47-0.266-9.573-0.266-12.309c0-4.869,0.93-7.304,2.787-7.304
		c0.597,0,6.835,1.007,18.715,3.018c1.525,0.199,2.287,0.938,2.287,2.208c0,2.943-0.208,7.357-0.621,13.244
		c-0.416,5.887-0.621,10.301-0.621,13.241c0,1.942,0.899,2.911,2.699,2.911h23.998c1.134,0,1.699,0.399,1.699,1.198
		s-0.117,2.081-0.351,3.842c-0.231,1.764-0.348,3.077-0.348,3.942c0,0.999,0.033,2.53,0.099,4.594
		c0.067,2.064,0.101,3.593,0.101,4.588c0,1.265-0.936,1.898-2.806,1.898c-2.674,0-6.713-0.177-12.122-0.533
		c-5.409-0.355-9.453-0.533-12.124-0.533c-0.535,0-0.935,1.9-1.2,5.701c-0.239,4.732-0.355,11.365-0.355,19.898v14.902
		c0,5.734,0.529,9.735,1.592,11.998c1.59,3.468,4.871,5.202,9.848,5.202c2.055,0,5.072-0.444,9.05-1.332
		c3.978-0.888,6.93-1.332,8.856-1.332C586.584,221.438,586.983,222.035,586.983,223.224z"/>
	<path d="M436.613,480.931c0,1.072-0.266,2.615-0.799,4.626c-0.6,2.547-0.966,4.09-1.1,4.626c-0.198,2.412-0.665,5.934-1.396,10.558
		c-0.333,1.198-1.197,1.8-2.597,1.8c-0.665,0-1.931-0.133-3.796-0.399c-8.191-1.2-20.877-1.804-38.054-1.804
		c-4.861,0-12.187,0.138-21.974,0.403c-9.79,0.269-17.114,0.401-21.974,0.401c-2.197,0-3.296-0.965-3.296-2.896
		c0-7.454,0.414-18.653,1.243-33.599c0.827-14.939,1.243-26.14,1.243-33.597c0-7.587-0.417-21.732-1.243-42.432
		c-0.139-5.327-0.519-13.28-1.14-23.864l-0.103-1.397c-0.067-1.532,0.799-2.298,2.602-2.298c4.669,0,11.674,0.137,21.014,0.403
		s16.346,0.399,21.018,0.399c4.468,0,11.157-0.133,20.064-0.399c8.905-0.267,15.594-0.403,20.065-0.403
		c3.135,0,4.836,0.972,5.103,2.907c1.4,8.827,2.103,14.31,2.103,16.448c0,1.537-0.737,2.306-2.201,2.306
		c-5.668,0-14.251-0.325-25.752-0.978c-11.501-0.648-20.152-0.976-25.949-0.976c-5.468,0-8.919,0.734-10.35,2.199
		c-1.434,1.464-2.15,5.097-2.15,10.891v14.889c0,4.064,0.1,6.429,0.3,7.095c0.599,2.065,2.33,3.099,5.193,3.099
		c0.798,0,1.931-0.032,3.396-0.1c1.531,0,2.663,0,3.395,0c13.05,0,24.767-0.229,35.154-0.688c4.063-0.133,8.854-0.461,14.381-0.987
		c1.398-0.134,2.097,0.469,2.097,1.8c0,2.137-0.248,5.407-0.748,9.811c-0.5,4.402-0.748,7.702-0.748,9.905
		c0,1.198-1,1.797-2.996,1.797c-0.799,0-3.764-0.232-8.89-0.698c-3.729-0.399-12.116-0.599-25.167-0.599
		c-10.986,0-17.943,0.133-20.873,0.396c-2.663,0.199-4.194,1.59-4.593,4.169c0.067-0.46,0.1,2.086,0.1,7.646v14.694
		c0,6.887,1.065,11.188,3.195,12.908c1.665,1.394,5.827,2.086,12.487,2.086l10.988-0.103c4.66,0,17.743-0.817,39.253-2.457
		l1.499-0.103C435.948,478.283,436.613,479.121,436.613,480.931z"/>
	<path d="M548.979,410.595c0,0.266-0.103,0.868-0.307,1.801c-2.638,15.266-3.955,28.432-3.955,39.495
		c0,0.665,0.853,15.632,2.56,44.896l0.103,1.398c0.067,1.933-0.822,2.898-2.656,2.898c-1.841,0-4.614,0.217-8.326,0.651
		c-3.712,0.431-6.471,0.649-8.272,0.649c-1.271,0-2.241-2.335-2.91-7.012c-0.668-4.676-1.303-7.014-1.902-7.014
		c-0.399,0-2.197,1.306-5.388,3.916c-3.922,3.216-7.582,5.66-10.972,7.336c-5.255,2.676-10.51,4.017-15.763,4.017
		c-12.901,0-23.773-5.163-32.619-15.491c-8.38-9.858-12.567-21.35-12.567-34.477c0-14.788,4.223-27.015,12.668-36.674
		c8.845-10.06,20.483-15.093,34.915-15.093c10.176,0,19.054,3.529,26.635,10.587c1.131,1.332,2.894,3.263,5.288,5.793
		c0.198,0.199,0.399,0.299,0.598,0.299c0.399,0,0.969-2.097,1.704-6.297c0.736-4.196,1.674-6.298,2.811-6.298
		c1.804,0,5.184,0.492,10.131,1.475C546.235,408.631,548.979,409.68,548.979,410.595z M523.412,452.468
		c0-8.175-2.426-15.189-7.275-21.039c-5.113-6.314-11.659-9.471-19.628-9.471c-7.976,0-14.617,3.124-19.93,9.37
		c-5.116,5.984-7.674,13.031-7.674,21.14c0,8.045,2.558,15.021,7.674,20.936c5.313,6.184,11.954,9.274,19.93,9.274
		c7.771,0,14.279-3.157,19.53-9.471C520.952,467.293,523.412,460.38,523.412,452.468z"/>
	<path d="M620.783,482.866c0,1.456-0.133,3.442-0.401,5.956c-0.332,3.109-0.528,5.127-0.594,6.053
		c-0.067,1.193-0.168,1.92-0.301,2.184c-0.267,0.472-0.896,0.94-1.893,1.406c-5.448,2.614-14.014,3.92-25.7,3.92
		c-15.48,0-23.251-7.06-23.309-21.183c0-5.662,0.115-14.174,0.354-25.53c0.235-11.357,0.354-19.868,0.354-25.534
		c0-2.729-1.367-4.196-4.097-4.396c-2.468,0-4.9-0.033-7.296-0.1c-1.4-0.333-2.101-3.065-2.101-8.201c0-1.93,0.133-3.964,0.402-6.1
		c0.199-1.599,1.268-2.565,3.207-2.898c1.67,0,3.31-0.034,4.915-0.101c3.075-0.133,4.614-1.501,4.614-4.103
		c0-2.665-0.089-6.733-0.267-12.204c-0.177-5.47-0.266-9.574-0.266-12.309c0-4.869,0.928-7.304,2.787-7.304
		c0.597,0,6.835,1.007,18.715,3.019c1.525,0.199,2.287,0.938,2.287,2.208c0,2.943-0.206,7.357-0.621,13.244
		c-0.414,5.887-0.621,10.299-0.621,13.24c0,1.941,0.899,2.911,2.699,2.911h24c1.131,0,1.697,0.399,1.697,1.197
		c0,0.799-0.117,2.08-0.349,3.842c-0.233,1.765-0.352,3.077-0.352,3.942c0,0.999,0.033,2.53,0.101,4.594
		c0.065,2.064,0.101,3.593,0.101,4.589c0,1.265-0.936,1.897-2.806,1.897c-2.674,0-6.713-0.179-12.122-0.533
		c-5.411-0.354-9.45-0.532-12.122-0.532c-0.537,0-0.936,1.9-1.202,5.701c-0.239,4.732-0.355,11.366-0.355,19.898v14.902
		c0,5.734,0.531,9.735,1.594,11.998c1.59,3.468,4.871,5.202,9.847,5.202c2.054,0,5.071-0.444,9.049-1.331
		c3.978-0.889,6.932-1.333,8.854-1.333C620.382,481.079,620.783,481.676,620.783,482.866z"/>
</g>
<g id="Ebene_3">
	<g>
		<path d="M266.426,433.753c0,0-0.155,0.577,4.733-8.231c4.883-8.814,1.094-14.718,8.313-24.502
			c7.226-9.788,27.207-21.495,27.207-21.495l4.56,5.529l-20.616,19.873l3.771,4.4l20.929-18.837l4.851,4.395l-20.647,20.348
			l4.049,4.526l21.77-19.441l5.152,3.985c-14.082,18.439-13.736,18.691-22.891,26.709c-6.862,5.999-14.438,1.754-22.817,7.987
			c-4.762,3.539-9.318,7.989-9.318,7.989l-6.028-5.534l-4.694-4.578"/>
		<path d="M283.201,438.128c0,0-12.328,15.03-17.317,22.206c5.952,6.669,11.208,11.176,15.767,13.52
			c5.145,2.641,11.833,3.955,20.064,3.955c3.672,0,5.476,0,5.402,0c2.349,0.373,3.526,1.401,3.526,3.091
			c0,0.811-0.092,2.059-0.275,3.75c-0.183,1.696-0.274,2.979-0.274,3.859c0,0.664,0.072,1.694,0.219,3.091
			c0.147,1.398,0.221,2.465,0.221,3.198c0,3.016-1.727,4.521-5.177,4.521c-1.982,0-4.919,0.074-8.812,0.219
			c-3.892,0.147-6.828,0.223-8.813,0.223c-6.091,0-12.774-2.308-20.042-6.927c-6.242-4.106-11.565-8.908-15.971-14.405
			c-7.486,8.523-14.2,14.552-20.142,18.077c-7.559,4.483-16.326,6.725-26.301,6.725c-11.152,0-20.142-3.888-26.965-11.664
			c-6.531-7.407-9.795-16.762-9.795-28.063c0-12.102,3.406-22.37,10.227-30.81c5.35-6.75,14.109-13.61,26.277-20.578
			c-4.26-11.069-6.389-20.526-6.389-28.374c0-12.317,3.27-22.102,9.808-29.361c6.831-7.404,16.349-11.106,28.547-11.106
			c9.771,0,18.036,2.418,24.798,7.255c7.565,5.425,11.35,12.825,11.35,22.204c0,10.406-4.346,19.608-13.037,27.595
			c-4.714,4.322-13.628,10.224-26.738,17.697c6.688,11.138,20.289,28.572,20.289,28.572l19.971-19.615 M240.325,465.047
			c-12.485-14.517-21.444-26.467-26.876-35.853c-13.955,8.872-20.931,19.467-20.931,31.78c0,5.939,1.724,10.851,5.177,14.736
			c3.599,4.107,8.335,6.157,14.21,6.157C220.938,481.868,230.409,476.261,240.325,465.047z M252.552,373.587
			c0-4.313-1.4-7.717-4.198-10.202c-2.798-2.488-6.367-3.734-10.713-3.734c-12.222,0-18.332,6.137-18.332,18.409
			c0,6.371,1.579,14.395,4.741,24.065c8.984-4.973,15.025-8.743,18.117-11.304C249.09,385.334,252.552,379.588,252.552,373.587z"/>
	</g>
</g>
<g id="Ebene_5" display="none">
	<defs>
		<filter id="Adobe_OpacityMaskFilter" filterUnits="userSpaceOnUse" x="97" y="97.417" width="284.75" height="22.598">
			
				<feColorMatrix  type="matrix" values="-1 0 0 0 1  0 -1 0 0 1  0 0 -1 0 1  0 0 0 1 0" color-interpolation-filters="sRGB" result="source"/>
			<feFlood  style="flood-color:white;flood-opacity:1" result="back"/>
			<feBlend  in="source" in2="back" mode="normal"/>
		</filter>
	</defs>
	<mask maskUnits="userSpaceOnUse" x="97" y="97.417" width="284.75" height="22.598" id="XMLID_2_" display="inline">
		<g filter="url(#Adobe_OpacityMaskFilter)">
		</g>
	</mask>
	<path display="inline" mask="url(#XMLID_2_)" fill-opacity="0.5" d="M97,116.792v-2.75c0,0,44.75-1,49.875-1.625
		s46.125-6.5,53.875-7.375s18.625-4.625,38.875-4s29.5,4.625,33.5,5.75s21.75,6.75,21.75,6.75l86.75-16.125l0.125,0.875
		c0,0-23.625,18.25-51.875,20.75s-29-0.25-37.875-3.375s-18.375-7-27.375-8.75s-17-4.375-31.375-3.625s-32.5,3.625-44,6.375
		s-51.625,5.75-61.5,6.25S97,116.792,97,116.792z"/>
</g>
<g id="Ebene_6">
	<g>
		<g id="XMLID_80_">
			<g>
				<path d="M721.212,269.789l0.274,1.983c0,0-53.877,41.61-118.264,47.311c-64.434,5.699-66.144-0.57-86.367-7.684l5.13-6.361
					L721.212,269.789z"/>
			</g>
			<g>
			</g>
		</g>
		<path fill="none" stroke="#000000" stroke-width="8" d="M79,309.101c0,0,88.159,3.798,156.939-7.224
			c68.781-11.019,95.189-10.866,150.671-11.249c55.48-0.381,138.131,18.851,138.131,18.851"/>
	</g>
</g>
</svg>
